<svg xmlns="http://www.w3.org/2000/svg" viewBox="0 0 512 512" id="growth-report">
  <path fill="#9bc9ff" fill-rule="evenodd" d="M64.76 81.631c0-12.883 3.414-25.764 14.278-33.688 7.152-5.216 16.106-7.171 24.831-7.171 8.723 0 17.674 1.956 24.823 7.171 10.863 7.924 14.277 20.806 14.277 33.688 0 11.601-2.821 23.544-8.904 33.493-5.25 8.586-13.13 15.844-23.101 18.293a29.7 29.7 0 0 1-14.213-.006c-9.968-2.456-17.844-9.713-23.091-18.298-6.081-9.946-8.9-21.885-8.9-33.482zm248.129 96.673h22.863v82.21h-22.863v-82.21zm114.593-61.521h22.849v143.73h-22.849v-143.73z" clip-rule="evenodd"></path>
  <path fill="#57a4ff" fill-rule="evenodd" d="M111.869 330.893V490.6a7.999 7.999 0 1 1-16 0V330.893c0-4.42 3.58-8 8-8 4.411-.001 8 3.58 8 8zm277.173-74.38h-14.854V149.911h14.854v106.602zm3-122.602h-20.854c-7.165 0-12.996 5.84-12.996 13.001v112.602c0 7.17 5.831 12.996 12.996 12.996h20.854c7.17 0 13-5.826 13-12.996V146.911c0-7.16-5.83-13-13-13zM274.449 256.513H259.6v-43.204h14.849v43.204zm3.014-59.199H256.6c-7.17 0-13 5.83-13 13v49.2c0 7.17 5.83 12.996 13 12.996h20.864c7.156 0 12.986-5.826 12.986-12.996v-49.2c-.001-7.17-5.831-13-12.987-13zm168.868 59.199h-14.85v-135.73h14.85v135.73zm3-151.73h-20.85c-7.17 0-13.001 5.83-13.001 13v141.73c0 7.17 5.831 12.996 13.001 12.996h20.85c7.17 0 13-5.826 13-12.996v-141.73c.001-7.17-5.83-13-13-13zm-117.578 151.73h-14.864v-74.21h14.864v74.21zm2.995-90.21h-20.859c-7.17 0-13 5.83-13 13v80.21c0 7.17 5.83 12.996 13 12.996h20.859c3.472 0 6.731-1.359 9.194-3.807a12.925 12.925 0 0 0 3.807-9.189v-80.21c-.001-7.169-5.831-13-13.001-13zm161.25 99.267V51.833c0-12.373-10.057-22.43-22.425-22.43h-241.2c-12.373 0-22.439 10.057-22.439 22.43v85.201h23.548l38.808-30.341c5.052-3.939 11.33-5.693 17.689-4.901 2.453.302 4.812.972 7 1.958l14.241-12.396a8.002 8.002 0 0 1 9.269-.892l31.284 15.43 41.209-42.86-7.212.849a7.985 7.985 0 1 1-1.807-15.868l29.326-3.462c4.382-.5 8.34 2.651 8.845 7.033.019.128.028 1.528.028 1.528l-2.401 29.43c-.34 4.401-4.189 7.689-8.59 7.349a8.008 8.008 0 0 1-7.349-8.599l.58-7.109L359.381 121a7.989 7.989 0 0 1-9.439 1.783l-32.223-15.892-9.198 8.019c2.09 4.17 2.91 8.858 2.33 13.599-.783 6.364-3.991 12.033-9.043 15.972l-44.067 34.44a23.98 23.98 0 0 1-16.081 6.179h-31.727v80.469c0 12.373 10.066 22.43 22.439 22.43h241.2c12.369.001 22.426-10.056 22.426-22.429zM68.759 81.631c0-32.072 21.991-36.859 35.11-36.859 13.109 0 35.1 4.788 35.1 36.859 0 26.821-15.75 48.648-35.1 48.648-19.359 0-35.11-21.826-35.11-48.648zm404.813-68.228h-241.2c-21.203 0-38.444 17.236-38.444 38.43v85.201h-63.747c14.84-11.331 24.788-31.921 24.788-55.403 0-32.609-19.581-52.86-51.1-52.86-31.529 0-51.11 20.251-51.11 52.86 0 23.482 9.953 44.072 24.788 55.403H58.25c-27.661 0-57.61 18.038-57.752 47.19l-.495 99.008c-.061 12.189 4.76 23.784 13.585 32.642 7.759 7.797 18.114 12.807 29.104 14.217V490.6c0 4.425 3.58 8.005 7.996 8.005 4.41 0 8-3.58 8-8.005V184.209c0-4.415-3.59-7.995-8-7.995a7.997 7.997 0 0 0-7.996 7.995v129.692c-6.731-1.259-12.981-4.5-17.764-9.312-5.797-5.831-8.967-13.378-8.929-21.27l.5-99.021c.104-20.406 24.312-31.265 41.751-31.265h177.981a8.018 8.018 0 0 0 4.929-1.703l40.978-32.029a7.95 7.95 0 0 1 5.892-1.632 7.95 7.95 0 0 1 5.311 3.01 7.923 7.923 0 0 1 1.627 5.882 7.933 7.933 0 0 1-3.009 5.311L247.651 166.5a5.556 5.556 0 0 0-.528.448 8.033 8.033 0 0 1-5.462 2.151h-58.049a7.985 7.985 0 0 0-6.16 2.901l-22.991 27.812a7.943 7.943 0 0 0-1.84 5.08l-.34 285.697c-.009 4.41 3.571 8 7.991 8.014h.009c4.41 0 7.991-3.575 8-7.995l.34-282.819 18.76-22.689h6.547v80.469c0 21.194 17.241 38.43 38.444 38.43H344.97v100.342l-54.799 53.789c-3.141 3.08-3.189 8.128-.099 11.279 3.09 3.142 8.137 3.179 11.288.09l51.61-50.648 51.61 50.648a7.973 7.973 0 0 0 11.279-.09c3.089-3.151 3.052-8.198-.09-11.279l-54.799-53.789V304h112.602c21.189 0 38.43-17.236 38.43-38.43V51.833c.001-21.194-17.24-38.43-38.43-38.43z" clip-rule="evenodd"></path>
</svg>
