<svg width="220" height="49" viewBox="0 0 220 49" fill="none" xmlns="http://www.w3.org/2000/svg">
<path d="M24.3453 9.43893L15.4737 18.3105V22.7463V27.1305L10.8316 31.9274L6.18948 36.7242V41.0052C6.18948 43.6358 6.3958 45.4926 6.75685 45.6989C7.1179 45.9052 10.8832 42.501 15.7832 37.601L24.2421 29.1421V24.7579V20.3737L29.1421 15.4737L34.0421 10.5737V5.8284C34.0421 3.24945 33.8358 0.979977 33.6295 0.825241C33.3716 0.670506 29.1937 4.5905 24.3453 9.43893Z" fill="#3054F2"/>
<path d="M83.5579 22.4368V34.5579H85.1053C86.0853 34.5579 86.8074 34.1968 87.1684 33.5263C87.7358 32.4947 87.7358 32.4947 89.2832 33.6295C92.2747 35.8474 96.5042 34.8158 98.361 31.3084C99.5989 29.0905 99.5989 22.5916 98.361 20.2705C96.6074 16.9179 92.0684 15.9895 89.2832 18.3621L87.6842 19.7031V15.0095V10.3158H85.621H83.5579V22.4368ZM93.8737 21.4568C94.2863 21.8695 94.6989 23.4684 94.8021 25.3768C94.9568 28.1105 94.8537 28.8326 93.8737 30.0189C92.5326 31.7726 90.3147 31.9274 88.9737 30.4316C87.8389 29.1937 87.3747 24.6031 88.1484 22.54C89.0768 20.2189 91.9653 19.6516 93.8737 21.4568Z" fill="#3054F2"/>
<path d="M6.55052 12.1726C5.98316 12.7916 6.13789 31.8758 6.70526 32.2368C7.01474 32.3916 8.61368 31.2568 10.3158 29.6063L13.4105 26.6663V22.4884V18.259L10.1611 15.0611C8.35579 13.3074 6.75684 12.0179 6.55052 12.1726Z" fill="#3054F2"/>
<path d="M54.1579 23.6232C54.1579 36.9305 54.0032 37.6526 50.7537 37.6526C49.1032 37.6526 49 37.7558 49 39.4579C49 41.2632 49 41.2632 51.3211 41.2632C54.3126 41.2632 56.4789 40.18 57.6137 38.0137C58.4389 36.621 58.5421 34.661 58.6968 24.0874L58.9032 11.8632H56.5305H54.1579V23.6232Z" fill="#3054F2"/>
<path d="M170.778 15.061C170.468 15.9895 169.488 17.3821 168.56 18.1042C166.909 19.4968 166.961 20.6316 168.715 20.6316C169.643 20.6316 169.695 21.0442 169.695 25.7379C169.695 28.5747 169.901 31.4631 170.211 32.2368C170.933 34.0937 173.769 35.2284 176.709 34.7642C178.773 34.4547 178.979 34.3 178.979 32.9589C178.979 31.5663 178.824 31.4631 176.916 31.4631C174.234 31.4631 173.821 30.5863 173.821 25.0674V20.6316H176.4C178.979 20.6316 178.979 20.6316 178.979 18.9295C178.979 17.2789 178.927 17.2789 176.555 17.2789H174.079L173.924 15.3189C173.769 13.72 173.563 13.4105 172.532 13.4105C171.655 13.4105 171.191 13.8231 170.778 15.061Z" fill="#3054F2"/>
<path d="M29.9158 17.8463L26.8211 20.7863V24.9642V29.1937L30.0705 32.3916C31.8758 34.1452 33.4748 35.4347 33.6811 35.28C34.2484 34.661 34.0937 15.5768 33.5263 15.2158C33.2169 15.061 31.6179 16.1958 29.9158 17.8463Z" fill="#3054F2"/>
<path d="M67.1042 17.9495C64.0095 19.4968 63.1842 21.1989 63.1842 25.7895C63.1842 30.1737 63.8032 31.5663 66.6916 33.681C68.6516 35.1768 73.7063 35.1768 75.6147 33.7326C78.2968 31.721 79.1221 30.1221 79.3284 26.4084C79.4316 23.52 79.2768 22.5916 78.2968 20.941C76.1305 17.2789 71.0242 15.8863 67.1042 17.9495ZM73.6547 21.4053C75.46 23.0558 75.3053 29.4516 73.4484 30.7926C72.1074 31.7726 69.7863 31.6179 68.7032 30.5347C67.3621 29.1937 66.8979 25.7895 67.7232 23.4168C68.7032 20.4253 71.5916 19.4453 73.6547 21.4053Z" fill="#3054F2"/>
<path d="M104.705 17.9495C103.313 18.62 102.797 19.2905 102.436 20.7863C101.765 23.4168 103.003 25.0158 107.439 27.2853C111.204 29.1421 111.875 30.5347 109.605 31.5663C108.625 31.9789 107.645 31.9274 105.221 31.36L102.126 30.5863V32.2884C102.126 33.4747 102.384 34.0421 103.055 34.2484C109.554 36.0537 114.969 34.0421 115.124 29.761C115.227 27.2853 113.835 25.7895 109.812 23.9842C107.233 22.8495 106.717 22.4368 106.872 21.5084C107.026 20.5284 107.336 20.3737 109.347 20.4253C110.637 20.4768 112.184 20.6316 112.752 20.8379C113.68 21.1474 113.938 20.941 114.402 19.7032C114.918 18.2074 114.866 18.1042 113.37 17.5884C110.946 16.7632 106.717 16.9179 104.705 17.9495Z" fill="#3054F2"/>
<path d="M124.666 18.2589C122.861 19.4968 122.809 19.4968 122.5 18.5168C122.242 17.7947 121.726 17.5368 120.385 17.5368H118.632V26.0474V34.5579H120.953H123.274V29.1937C123.274 26.2021 123.48 23.2105 123.789 22.4368C124.357 20.9926 126.214 20.0642 127.813 20.4768C129.463 20.8895 129.979 22.901 129.979 28.8842V34.5579H131.991H134.002L134.208 28.5747C134.363 22.7463 134.415 22.5916 135.807 21.3537C137.561 19.8579 138.438 19.8063 139.779 21.1474C140.707 22.0758 140.811 22.8495 140.811 28.3684V34.5579H143.132H145.453V28.0589C145.453 20.8895 144.834 18.62 142.564 17.5884C139.985 16.4021 135.085 17.3821 134.518 19.1874C134.363 19.6516 133.744 19.3937 132.609 18.4137C130.392 16.5568 127.297 16.5053 124.666 18.2589Z" fill="#3054F2"/>
<path d="M152.261 17.7947C150.714 18.4652 150.662 18.62 151.229 19.8579C151.694 20.941 152.055 21.1473 152.88 20.8379C155.098 20.1158 158.399 20.0126 159.121 20.6316C159.534 20.9926 159.895 21.921 159.895 22.7463C159.895 24.1905 159.843 24.2421 157.058 24.2421C153.86 24.2421 150.301 25.48 149.579 26.8726C148.805 28.2652 148.96 31.6179 149.837 32.8558C151.023 34.5579 154.118 35.3316 156.439 34.6095C157.419 34.2484 158.554 33.6295 158.863 33.2168C159.74 32.1852 160.772 32.34 161.081 33.5263C161.287 34.3 161.803 34.5579 162.938 34.5579H164.537V28.3684C164.537 21.2505 163.918 19.0842 161.494 17.8463C159.585 16.8147 154.582 16.8147 152.261 17.7947ZM159.895 28.0589C159.895 31.2568 155.717 33.2684 154.015 30.8958C152.519 28.7294 154.685 26.3052 158.244 26.3052C159.792 26.3052 159.895 26.4084 159.895 28.0589Z" fill="#3054F2"/>
<path d="M185.684 17.9495C181.042 20.3737 180.217 28.5747 184.24 32.8558C186.458 35.2284 192.183 35.4863 195.278 33.32C198.218 31.2568 199.146 23.9326 196.877 20.58C194.659 17.1758 189.449 15.9895 185.684 17.9495ZM192.647 21.7147C193.473 22.54 193.679 23.4168 193.679 26.0989C193.679 29.0389 193.473 29.6579 192.441 30.4832C189.346 33.0105 186.2 30.7411 186.2 25.9442C186.2 22.7463 186.819 21.3021 188.418 20.6316C189.862 20.0642 191.306 20.4768 192.647 21.7147Z" fill="#3054F2"/>
</svg>
